<svg xmlns="http://www.w3.org/2000/svg" width="900" height="640" viewBox="0 0 900 640" role="img" aria-label="All-terrain tire tread for pickup and SUV comparison">
  <rect width="900" height="640" fill="#fff7ed"/>
  <path d="M0 520c150-54 296-58 438-12 144 47 288 40 462-22v154H0z" fill="#fed7aa"/>
  <ellipse cx="450" cy="500" rx="260" ry="46" fill="#7c2d12" opacity=".16"/>
  <circle cx="450" cy="305" r="218" fill="#171717"/>
  <circle cx="450" cy="305" r="129" fill="#fff7ed"/>
  <g fill="#f97316" opacity=".95">
    <rect x="428" y="88" width="44" height="70" rx="12"/><rect x="428" y="452" width="44" height="70" rx="12"/>
    <rect x="633" y="283" width="70" height="44" rx="12"/><rect x="197" y="283" width="70" height="44" rx="12"/>
    <rect x="590" y="145" width="52" height="44" rx="12" transform="rotate(45 616 167)"/>
    <rect x="258" y="421" width="52" height="44" rx="12" transform="rotate(45 284 443)"/>
    <rect x="258" y="145" width="52" height="44" rx="12" transform="rotate(-45 284 167)"/>
    <rect x="590" y="421" width="52" height="44" rx="12" transform="rotate(-45 616 443)"/>
  </g>
  <text x="450" y="588" text-anchor="middle" font-family="Arial, sans-serif" font-size="28" font-weight="700" fill="#7c2d12">All-terrain pickup and SUV tires</text>
</svg>
