<svg xmlns="http://www.w3.org/2000/svg" viewBox="0 0 1200 900" role="img" aria-label="Clean tire on road visual for tire comparison search">
  <defs>
    <linearGradient id="studio" x1="0" x2="1" y1="0" y2="1">
      <stop offset="0" stop-color="#f8fafc"/>
      <stop offset=".58" stop-color="#eef3f0"/>
      <stop offset="1" stop-color="#e3e8e4"/>
    </linearGradient>
    <linearGradient id="road" x1="0" x2="1">
      <stop offset="0" stop-color="#d9ded9"/>
      <stop offset=".45" stop-color="#edf0ec"/>
      <stop offset="1" stop-color="#c9d0ca"/>
    </linearGradient>
    <radialGradient id="rubber" cx=".42" cy=".34" r=".68">
      <stop offset="0" stop-color="#46514d"/>
      <stop offset=".48" stop-color="#1f2725"/>
      <stop offset="1" stop-color="#070b0a"/>
    </radialGradient>
    <radialGradient id="sidewall" cx=".5" cy=".48" r=".55">
      <stop offset="0" stop-color="#202927"/>
      <stop offset=".68" stop-color="#111716"/>
      <stop offset="1" stop-color="#070908"/>
    </radialGradient>
    <filter id="shadow" x="-20%" y="-20%" width="140%" height="150%">
      <feDropShadow dx="0" dy="32" stdDeviation="28" flood-color="#16201d" flood-opacity=".22"/>
    </filter>
  </defs>
  <rect width="1200" height="900" fill="url(#studio)"/>
  <path d="M0 650 C220 590 420 610 610 650 C790 688 995 690 1200 624 L1200 900 L0 900 Z" fill="url(#road)"/>
  <path d="M116 733 C350 704 565 719 782 753 C892 770 1012 775 1124 752" fill="none" stroke="#fff" stroke-width="10" stroke-linecap="round" opacity=".75"/>
  <g filter="url(#shadow)" transform="translate(80 6)">
    <ellipse cx="615" cy="718" rx="312" ry="42" fill="#17201d" opacity=".18"/>
    <circle cx="610" cy="446" r="272" fill="url(#rubber)"/>
    <circle cx="610" cy="446" r="207" fill="#070b0a"/>
    <circle cx="610" cy="446" r="142" fill="url(#sidewall)"/>
    <circle cx="610" cy="446" r="82" fill="#eef2ee"/>
    <circle cx="610" cy="446" r="44" fill="#b9c3bd"/>
    <g fill="none" stroke="#2f3a36" stroke-width="18" stroke-linecap="round" opacity=".95">
      <path d="M398 305 C466 343 506 387 520 450"/>
      <path d="M430 647 C475 581 526 543 595 526"/>
      <path d="M690 225 C650 292 628 349 630 424"/>
      <path d="M825 612 C758 576 716 531 700 466"/>
      <path d="M836 300 C770 340 731 389 720 458"/>
    </g>
    <g fill="none" stroke="#f7faf7" stroke-width="14" stroke-linecap="round" opacity=".2">
      <path d="M452 247 C536 198 650 183 751 220"/>
      <path d="M356 430 C354 363 382 303 430 256"/>
    </g>
    <g fill="#f36b21" opacity=".95">
      <circle cx="610" cy="208" r="9"/>
      <circle cx="819" cy="334" r="8"/>
      <circle cx="793" cy="590" r="8"/>
      <circle cx="387" cy="559" r="8"/>
    </g>
  </g>
  <g opacity=".35" fill="none" stroke="#ffffff" stroke-width="3">
    <path d="M98 190 C250 115 400 106 535 150"/>
    <path d="M840 150 C936 128 1016 132 1100 170"/>
  </g>
</svg>
